<svg width="400" height="300" viewBox="0 0 400 300" fill="none" xmlns="http://www.w3.org/2000/svg">
  <!-- Background -->
  <rect width="400" height="300" fill="#F0F9FF"/>
  
  <!-- Phone/Device mockup -->
  <rect x="120" y="50" width="160" height="200" rx="16" fill="white" stroke="#E5E7EB" stroke-width="2"/>
  
  <!-- Screen content -->
  <rect x="130" y="70" width="140" height="8" rx="4" fill="#3B82F6"/>
  <rect x="130" y="90" width="100" height="6" rx="3" fill="#9CA3AF"/>
  <rect x="130" y="105" width="120" height="6" rx="3" fill="#9CA3AF"/>
  
  <!-- Form fields -->
  <rect x="130" y="125" width="140" height="12" rx="6" fill="#F3F4F6" stroke="#D1D5DB"/>
  <rect x="130" y="145" width="140" height="12" rx="6" fill="#F3F4F6" stroke="#D1D5DB"/>
  <rect x="130" y="165" width="140" height="24" rx="6" fill="#F3F4F6" stroke="#D1D5DB"/>
  
  <!-- Button -->
  <rect x="130" y="200" width="140" height="20" rx="10" fill="#3B82F6"/>
  <text x="200" y="213" text-anchor="middle" fill="white" font-family="Arial" font-size="10" font-weight="bold">Julkaise</text>
  
  <!-- Edit icon -->
  <circle cx="80" cy="150" r="25" fill="#3B82F6" opacity="0.1"/>
  <path d="M70 150L75 145L85 155L80 160L70 150Z" fill="#3B82F6"/>
  <path d="M75 145L80 140L85 145L80 150L75 145Z" fill="#3B82F6"/>
  
  <!-- Floating elements -->
  <circle cx="50" cy="80" r="3" fill="#3B82F6" opacity="0.3"/>
  <circle cx="350" cy="100" r="2" fill="#10B981" opacity="0.3"/>
  <circle cx="60" cy="250" r="2" fill="#8B5CF6" opacity="0.3"/>
</svg>
